<svg viewBox="0 0 200 52" fill="none" xmlns="http://www.w3.org/2000/svg">
    <g clip-path="url(#clip0)">
        <path d="M22.3998 33.1519C22.7821 32.0663 23.1737 30.8937 24.1377 30.2657C24.7753 29.8504 25.5485 29.7022 26.229 29.3617C27.0131 28.969 27.6637 28.315 28.0519 27.5286C28.3937 26.8361 28.5347 26.0147 28.2051 25.2859C28.0045 24.8424 27.6305 24.4884 27.1622 24.3553C25.7422 23.9513 24.5309 25.7153 23.0426 25.7962C22.1196 25.8462 21.3081 25.242 20.5521 24.7103C19.5824 24.0281 18.3457 23.3843 17.2525 24.3592C16.9126 24.6627 16.669 25.0606 16.5265 25.4934C15.435 28.8054 16.1366 32.404 17.233 35.6828C19.0772 41.1982 20.2205 44.9667 21.0211 47.5226C22.4802 47.8536 23.9942 48.0396 25.547 48.0664C24.9119 46.3084 24.3454 44.5436 23.8299 42.6799C22.8677 39.2003 21.9529 34.4209 22.3998 33.1519Z" fill="white"/>
        <path d="M16.1651 20.8841C15.868 20.317 15.6591 19.7038 15.5483 19.0732C14.687 20.5608 14.2193 22.2737 14.2052 23.9921C14.1947 25.2511 14.4223 26.4984 14.6491 27.7368C14.8022 28.5734 14.9604 29.4253 15.3598 30.1763L15.3828 30.241C15.1341 28.437 14.9239 26.4977 15.7663 24.8832C16.1879 24.0755 16.8773 23.3107 16.7986 22.403C16.7507 21.8523 16.4215 21.3738 16.1651 20.8841Z" fill="white"/>
        <path d="M26.8977 51.5602L26.8951 51.554C26.4114 50.3771 25.9646 49.2232 25.547 48.0664C23.9942 48.0396 22.4802 47.8536 21.0211 47.5226C21.6742 49.6078 22.0994 50.886 22.4904 51.6461C23.6181 51.796 24.7684 51.8747 25.9373 51.8747C26.267 51.8747 26.5951 51.8666 26.9219 51.8543C26.9433 51.7599 26.9376 51.6582 26.8977 51.5602Z" fill="white"/>
        <path d="M37.5365 2.89305C35.4568 1.85158 33.2181 1.08158 30.8661 0.629059C30.0395 1.43986 28.9412 2.64526 27.7292 4.03516C26.9549 4.92309 26.1342 5.88606 25.3085 6.86961C22.0506 10.7495 18.7127 14.9474 17.8258 16.1001C17.2486 16.85 16.6581 17.6266 16.4162 18.5413C15.9128 20.4446 17.3063 22.627 19.2447 22.9712C19.9544 23.0973 20.7073 23.0103 21.3782 23.2743C21.9464 23.4979 22.3939 23.951 22.9379 24.2276C23.9572 24.7457 25.2944 24.5474 26.1185 23.7551C26.9426 22.9628 27.1933 21.6335 26.7135 20.5959C26.4569 20.041 26.0225 19.5828 25.7675 19.0272C25.3565 18.1317 25.4592 17.0675 25.8261 16.153C26.193 15.2386 26.8005 14.4442 27.4069 13.6675C28.9576 11.6808 30.5645 9.70907 32.529 8.13035C33.4277 7.40808 34.4074 6.75946 35.3123 6.04203C42.8497 9.57177 48.0714 17.2238 48.0714 26.0967C48.0714 36.7992 40.475 45.7275 30.38 47.7845C28.8772 43.6062 27.1351 39.6049 26.9912 35.0921C26.9561 33.9979 28.7117 31.8602 27.8732 31.1566C27.4608 30.8107 26.9608 30.6748 26.4361 30.6835C24.7881 30.7104 23.4933 32.1232 23.532 33.7711C23.5367 33.9737 23.5343 34.176 23.5462 34.373C23.83 39.0241 25.3101 43.7068 27.1453 48.1975C27.5866 49.278 28.0484 50.3475 28.5193 51.4025C28.5952 51.5725 28.6775 51.749 28.8106 51.8747C29.7447 51.7718 30.6634 51.6193 31.5648 51.4198C43.1836 48.8494 51.8745 38.4887 51.8745 26.0967C51.8745 15.9415 46.0376 7.15112 37.5365 2.89305Z" fill="#00ADB5"/>
        <path d="M25.9373 -3.05176e-05C11.6126 -3.05176e-05 6.10352e-05 11.6125 6.10352e-05 25.9374C6.10352e-05 39.0932 9.79524 49.9602 22.4904 51.6461C22.0994 50.8859 21.6743 49.6078 21.0211 47.5226C11.163 45.2868 3.80318 36.4718 3.80318 25.9374C3.80318 14.4774 12.5126 5.05173 23.6733 3.91774C24.7909 2.54963 25.9026 1.18324 26.8431 0.0174363C26.5424 0.00706133 26.2406 -3.05176e-05 25.9373 -3.05176e-05Z" fill="white"/>
        <path d="M68.6622 4.70495C70.1345 4.70488 71.4146 4.96109 72.5014 5.47374C73.5836 5.98622 74.4173 6.71381 75.003 7.65635C75.5889 8.59889 75.8818 9.71505 75.8819 11.0048C75.8819 12.278 75.5891 13.3918 75.0033 14.3451C74.4176 15.2934 73.584 16.0176 72.5019 16.5196C71.4152 17.0265 70.1351 17.2804 68.6627 17.2805L65.3142 17.2806L65.3144 22.0676L61.4674 22.0678L61.4666 4.70527L68.6622 4.70495ZM68.4489 14.0063C69.6046 14.0063 70.4832 13.7441 71.0849 13.2208C71.6865 12.7024 71.9872 11.964 71.9871 11.005C71.9871 10.0294 71.6863 9.28277 71.0847 8.7644C70.483 8.24101 69.6044 7.97908 68.4486 7.97913L65.3138 7.97927L65.314 14.0064L68.4489 14.0063ZM90.8402 15.444C90.8402 15.4936 90.8164 15.8408 90.769 16.4856L81.1035 16.486C81.2777 17.3129 81.6894 17.966 82.3386 18.4455C82.9877 18.9251 83.7951 19.1647 84.7608 19.1647C85.4258 19.1647 86.017 19.063 86.5341 18.8587C87.0462 18.6495 87.5235 18.3213 87.9668 17.8748L89.938 20.107C88.7347 21.5457 86.9774 22.265 84.666 22.2651C83.2253 22.2652 81.9507 21.9735 80.8424 21.3889C79.7342 20.7995 78.8793 19.9835 78.2776 18.9418C77.676 17.9001 77.3751 16.7178 77.375 15.3949C77.375 14.0886 77.671 12.912 78.2614 11.8645C78.8583 10.8121 79.6735 9.99344 80.7074 9.40877C81.7475 8.81925 82.908 8.52404 84.1904 8.52398C85.4411 8.52392 86.5732 8.80503 87.5863 9.36714C88.5997 9.92942 89.3968 10.7371 89.9772 11.7896C90.5527 12.8371 90.8401 14.0549 90.8402 15.444ZM84.2142 11.4509C83.3752 11.451 82.6706 11.699 82.1007 12.1951C81.5308 12.6912 81.1826 13.3691 81.0558 14.229L87.3491 14.2287C87.2225 13.3854 86.8741 12.7133 86.3041 12.2113C85.7342 11.7045 85.0375 11.4509 84.2142 11.4509ZM100.551 18.6928L101.548 21.421C101.184 21.7022 100.739 21.9147 100.211 22.0578C99.6779 22.1959 99.1182 22.2644 98.5325 22.2645C97.0126 22.2645 95.8355 21.8596 95.0019 21.0494C94.173 20.2391 93.759 19.0486 93.759 17.4777L93.7587 11.996L91.7876 11.9961L91.7875 9.01974L93.7586 9.01965L93.7584 5.77037L97.463 5.77021L97.4631 9.01948L100.645 9.01934L100.646 11.9957L97.4633 11.9959L97.4635 17.4279C97.4635 17.9902 97.6005 18.4225 97.8753 18.7259C98.1547 19.0342 98.5481 19.189 99.0548 19.189C99.6406 19.1889 100.139 19.0234 100.551 18.6928ZM115.748 15.4428C115.748 15.4925 115.724 15.8397 115.677 16.4845L106.011 16.4849C106.185 17.3118 106.597 17.9649 107.246 18.4444C107.895 18.924 108.703 19.1636 109.669 19.1636C110.334 19.1635 110.925 19.0619 111.442 18.8576C111.954 18.6484 112.431 18.3201 112.875 17.8737L114.846 20.1059C113.642 21.5446 111.885 22.2639 109.574 22.264C108.133 22.264 106.858 21.9724 105.75 21.3878C104.642 20.7984 103.787 19.9824 103.185 18.9406C102.584 17.899 102.283 16.7166 102.283 15.3938C102.283 14.0874 102.578 12.9109 103.169 11.8634C103.765 10.811 104.581 9.99232 105.615 9.40765C106.654 8.81813 107.816 8.52291 109.098 8.52286C110.349 8.5228 111.481 8.80391 112.494 9.36602C113.507 9.9283 114.305 10.7359 114.885 11.7885C115.46 12.836 115.748 14.0538 115.748 15.4428ZM109.122 11.4498C108.283 11.4498 107.578 11.6978 107.008 12.194C106.439 12.6901 106.09 13.3679 105.964 14.2279L112.257 14.2276C112.13 13.3843 111.782 12.7122 111.212 12.2102C110.642 11.7034 109.945 11.4498 109.122 11.4498ZM136.429 18.1951L136.428 13.1103L139.943 13.1101L139.943 20.1544C139.041 20.8655 137.996 21.4113 136.809 21.7916C135.621 22.1718 134.426 22.3621 133.223 22.3622C131.497 22.3622 129.946 21.9795 128.568 21.2132C127.191 20.4419 126.109 19.3721 125.322 18.0054C124.542 16.6437 124.151 15.1034 124.151 13.3837C124.151 11.6641 124.542 10.1237 125.322 8.76196C126.109 7.39519 127.198 6.3286 128.591 5.56217C129.984 4.79073 131.552 4.40453 133.293 4.40445C134.75 4.40439 136.072 4.66059 137.259 5.17324C138.447 5.68571 139.444 6.42972 140.252 7.40528L137.782 9.78662C136.594 8.48029 135.162 7.82725 133.483 7.82733C132.423 7.82738 131.481 8.05895 130.657 8.52189C129.834 8.98499 129.193 9.63812 128.734 10.4815C128.275 11.3248 128.045 12.2923 128.045 13.3835C128.045 14.4584 128.275 15.4174 128.734 16.2607C129.193 17.104 129.832 17.7629 130.65 18.2367C131.463 18.7054 132.391 18.9393 133.436 18.9393C134.545 18.9392 135.542 18.6912 136.429 18.1951ZM152.407 8.71942L156.112 8.71925L156.113 22.0635L152.598 22.0637L152.598 20.4763C152.107 21.0551 151.521 21.4957 150.841 21.7992C150.16 22.1076 149.424 22.2622 148.632 22.2622C146.954 22.2623 145.624 21.7581 144.642 20.7494C143.661 19.7408 143.17 18.2444 143.17 16.26L143.169 8.71983L146.874 8.71967L146.874 15.6894C146.875 17.8391 147.737 18.9139 149.463 18.9138C150.35 18.9138 151.062 18.6103 151.6 18.0042C152.139 17.4031 152.408 16.5077 152.408 15.3172L152.407 8.71942ZM164.707 8.52035C166.686 8.52027 168.205 9.01387 169.266 10.0001C170.327 10.9816 170.857 12.4639 170.858 14.4482L170.858 22.0629L167.391 22.063L167.39 20.4011C166.694 21.6413 165.396 22.2615 163.496 22.2615C162.514 22.2616 161.665 22.088 160.947 21.7408C160.224 21.3937 159.673 20.9142 159.293 20.3023C158.913 19.6905 158.722 18.9961 158.722 18.2188C158.722 16.9787 159.168 16.003 160.06 15.292C160.957 14.5809 162.34 14.2253 164.208 14.2252L167.153 14.2251C167.153 13.3818 166.907 12.7344 166.417 12.2822C165.926 11.8251 165.19 11.596 164.208 11.596C163.527 11.5961 162.857 11.7094 162.197 11.9352C161.543 12.1559 160.986 12.4561 160.527 12.8364L159.197 10.1329C159.894 9.62031 160.73 9.22343 161.706 8.94223C162.678 8.66102 163.677 8.5204 164.707 8.52035ZM164.422 19.6572C165.055 19.6572 165.617 19.5059 166.108 19.2024C166.599 18.894 166.947 18.4417 167.153 17.8465L167.153 16.4822L164.612 16.4823C163.092 16.4824 162.332 17.0034 162.332 18.045C162.332 18.5411 162.52 18.9323 162.894 19.2191C163.264 19.511 163.773 19.6572 164.422 19.6572ZM183.085 8.71804L186.647 8.71788L180.877 22.881C180.291 24.4188 179.566 25.502 178.7 26.1302C177.84 26.7586 176.801 27.0729 175.582 27.0729C174.917 27.0729 174.26 26.9656 173.61 26.7507C172.961 26.5356 172.431 26.238 172.019 25.8578L173.373 23.1044C173.658 23.3691 173.985 23.5758 174.355 23.7246C174.729 23.8733 175.099 23.9478 175.463 23.9478C175.969 23.9478 176.381 23.8179 176.698 23.559C177.014 23.3052 177.299 22.8812 177.552 22.2858L177.6 22.1618L172.066 8.71853L175.89 8.71836L179.476 17.7714L183.085 8.71804Z" fill="white"/>
        <path d="M71.277 45.1645L69.849 41.8456H63.2198L61.792 45.1645H60.483L65.9224 32.7405H67.1633L72.6027 45.1645H71.277ZM63.6787 40.7806H69.3901L66.5344 34.1072L63.6787 40.7806ZM78.5165 43.6915L78.9413 44.5965C78.7144 44.8095 78.434 44.9719 78.0999 45.0847C77.7651 45.1974 77.4167 45.2532 77.0546 45.2532C76.2158 45.2532 75.5698 45.0163 75.1167 44.5432C74.663 44.0703 74.4368 43.4011 74.4368 42.5378V36.8938H72.8391V35.8288H74.4368V33.7877H75.6438V35.8288H78.3634V36.8938H75.6438V42.4667C75.6438 43.0231 75.7762 43.4456 76.0432 43.7357C76.3092 44.0259 76.6917 44.1706 77.1905 44.1706C77.4395 44.1706 77.68 44.1289 77.913 44.0463C78.145 43.9638 78.3465 43.8448 78.5165 43.6915ZM85.688 35.7579C86.8099 35.7579 87.7023 36.0977 88.3652 36.7783C89.028 37.459 89.3595 38.4493 89.3595 39.7512V45.1645H88.1527V39.8755C88.1527 38.9055 87.9207 38.1654 87.4557 37.6569C86.9918 37.1485 86.3288 36.8938 85.467 36.8938C84.504 36.8938 83.7416 37.1927 83.1807 37.79C82.6198 38.3873 82.3393 39.2126 82.3393 40.266V45.1645H81.1325V31.9951H82.3393V37.4616C82.6682 36.9176 83.1212 36.4971 83.6991 36.2016C84.2771 35.9061 84.9401 35.7579 85.688 35.7579ZM92.6385 45.1645V31.9951H93.8453V45.1645H92.6385ZM105.012 40.4966L104.995 40.8871H97.5161C97.5841 41.8572 97.9412 42.6415 98.587 43.2388C99.233 43.836 100.049 44.1352 101.035 44.1352C101.591 44.1352 102.101 44.0312 102.565 43.8244C103.03 43.6178 103.431 43.3124 103.772 42.9104L104.451 43.7269C104.055 44.2239 103.559 44.6027 102.964 44.8628C102.369 45.1229 101.715 45.2532 101.001 45.2532C100.083 45.2532 99.2704 45.0492 98.5616 44.6409C97.8535 44.2327 97.301 43.6674 96.9042 42.946C96.5082 42.2244 96.3092 41.4081 96.3092 40.4966C96.3092 39.5852 96.4996 38.7689 96.8788 38.0473C97.2587 37.3259 97.7797 36.7632 98.4426 36.3612C99.1054 35.9592 99.8509 35.7579 100.678 35.7579C101.506 35.7579 102.248 35.9592 102.905 36.3612C103.562 36.7632 104.077 37.3223 104.451 38.0385C104.825 38.7547 105.012 39.5738 105.012 40.4966ZM100.678 36.8405C99.8168 36.8405 99.0943 37.127 98.5106 37.7013C97.9275 38.2754 97.596 39.0236 97.5161 39.9464H103.856C103.777 39.0236 103.446 38.2754 102.862 37.7013C102.279 37.127 101.551 36.8405 100.678 36.8405ZM111.759 43.6915L112.184 44.5965C111.958 44.8095 111.677 44.9719 111.343 45.0847C111.008 45.1974 110.66 45.2532 110.297 45.2532C109.459 45.2532 108.813 45.0163 108.359 44.5432C107.906 44.0703 107.679 43.4011 107.679 42.5378V36.8938H106.082V35.8288H107.679V33.7877H108.886V35.8288H111.606V36.8938H108.886V42.4667C108.886 43.0231 109.02 43.4456 109.286 43.7357C109.553 44.0259 109.935 44.1706 110.433 44.1706C110.683 44.1706 110.923 44.1289 111.155 44.0463C111.388 43.9638 111.589 43.8448 111.759 43.6915ZM114.376 45.1645V35.8288H115.583V45.1645H114.376ZM114.988 33.7877C114.739 33.7877 114.529 33.699 114.359 33.5216C114.189 33.344 114.104 33.1309 114.104 32.8825C114.104 32.6456 114.189 32.4388 114.359 32.2613C114.529 32.0839 114.739 31.9951 114.988 31.9951C115.237 31.9951 115.447 32.0812 115.617 32.2525C115.787 32.4237 115.872 32.6279 115.872 32.8648C115.872 33.1249 115.787 33.344 115.617 33.5216C115.447 33.699 115.237 33.7877 114.988 33.7877ZM122.653 45.2532C121.769 45.2532 120.979 45.0518 120.282 44.6498C119.585 44.2477 119.038 43.6825 118.642 42.9548C118.245 42.2272 118.046 41.4081 118.046 40.4966C118.046 39.5852 118.245 38.7689 118.642 38.0473C119.038 37.3259 119.585 36.7632 120.282 36.3612C120.979 35.9592 121.769 35.7579 122.653 35.7579C123.424 35.7579 124.112 35.9149 124.718 36.2282C125.324 36.5414 125.804 37.0001 126.155 37.6036L125.254 38.2425C124.959 37.7812 124.585 37.435 124.132 37.2043C123.679 36.9737 123.186 36.8581 122.653 36.8581C122.007 36.8581 121.427 37.0091 120.911 37.3108C120.395 37.6126 119.993 38.0411 119.704 38.5975C119.415 39.154 119.27 39.7867 119.27 40.4966C119.27 41.2181 119.415 41.8544 119.704 42.4046C119.993 42.9548 120.395 43.3807 120.911 43.6825C121.427 43.9842 122.007 44.1352 122.653 44.1352C123.186 44.1352 123.679 44.0224 124.132 43.7978C124.585 43.5734 124.959 43.2299 125.254 42.7684L126.155 43.4074C125.804 44.0108 125.322 44.4698 124.71 44.7829C124.098 45.0962 123.412 45.2532 122.653 45.2532ZM135.535 45.1645V33.8764H131.354V32.7405H140.975V33.8764H136.793V45.1645H135.535ZM147.279 35.7579C148.401 35.7579 149.293 36.0977 149.956 36.7783C150.619 37.459 150.951 38.4493 150.951 39.7512V45.1645H149.744V39.8755C149.744 38.9055 149.512 38.1654 149.047 37.6569C148.583 37.1485 147.92 36.8938 147.058 36.8938C146.095 36.8938 145.333 37.1927 144.772 37.79C144.211 38.3873 143.931 39.2126 143.931 40.266V45.1645H142.724V31.9951H143.931V37.4616C144.259 36.9176 144.712 36.4971 145.29 36.2016C145.868 35.9061 146.531 35.7579 147.279 35.7579ZM162.066 40.4966L162.049 40.8871H154.57C154.638 41.8572 154.995 42.6415 155.641 43.2388C156.287 43.836 157.102 44.1352 158.088 44.1352C158.644 44.1352 159.154 44.0312 159.618 43.8244C160.083 43.6178 160.485 43.3124 160.825 42.9104L161.505 43.7269C161.109 44.2239 160.613 44.6027 160.018 44.8628C159.423 45.1229 158.768 45.2532 158.054 45.2532C157.136 45.2532 156.324 45.0492 155.615 44.6409C154.907 44.2327 154.355 43.6674 153.958 42.946C153.562 42.2244 153.363 41.4081 153.363 40.4966C153.363 39.5852 153.553 38.7689 153.932 38.0473C154.312 37.3259 154.833 36.7632 155.496 36.3612C156.159 35.9592 156.904 35.7579 157.731 35.7579C158.559 35.7579 159.301 35.9592 159.958 36.3612C160.616 36.7632 161.131 37.3223 161.505 38.0385C161.879 38.7547 162.066 39.5738 162.066 40.4966ZM157.731 36.8405C156.87 36.8405 156.148 37.127 155.564 37.7013C154.981 38.2754 154.65 39.0236 154.57 39.9464H160.91C160.831 39.0236 160.5 38.2754 159.916 37.7013C159.333 37.127 158.604 36.8405 157.731 36.8405ZM165.685 37.6569C165.969 37.0295 166.39 36.5564 166.951 36.237C167.512 35.9175 168.207 35.7579 169.033 35.7579V36.9825L168.745 36.9647C167.805 36.9647 167.068 37.2664 166.535 37.8699C166.003 38.4734 165.736 39.3191 165.736 40.408V45.1645H164.529V35.8288H165.685V37.6569ZM174.319 35.7579C175.486 35.7579 176.382 36.0622 177.005 36.6719C177.628 37.2815 177.94 38.1832 177.94 39.3786V45.1645H176.784V43.7091C176.512 44.1946 176.112 44.5726 175.585 44.845C175.059 45.1175 174.432 45.2532 173.707 45.2532C172.71 45.2532 171.916 45.0048 171.327 44.5078C170.738 44.0108 170.443 43.3541 170.443 42.5378C170.443 41.7453 170.718 41.1064 171.268 40.621C171.818 40.1354 172.693 39.8932 173.894 39.8932H176.733V39.3253C176.733 38.5204 176.518 37.9081 176.087 37.4883C175.656 37.0686 175.027 36.8581 174.2 36.8581C173.633 36.8581 173.089 36.9559 172.568 37.1511C172.047 37.3463 171.599 37.6152 171.225 37.9586L170.682 37.0179C171.134 36.6159 171.678 36.3053 172.313 36.0861C172.948 35.867 173.616 35.7579 174.319 35.7579ZM173.894 44.2593C174.574 44.2593 175.158 44.0969 175.645 43.7713C176.132 43.4456 176.495 42.9752 176.733 42.3602V40.8338H173.928C172.398 40.8338 171.633 41.3903 171.633 42.5023C171.633 43.0463 171.831 43.4758 172.228 43.789C172.625 44.1023 173.18 44.2593 173.894 44.2593ZM185.825 35.7579C186.664 35.7579 187.423 35.9557 188.103 36.3524C188.783 36.749 189.316 37.3081 189.701 38.0297C190.086 38.7511 190.279 39.5738 190.279 40.4966C190.279 41.4311 190.086 42.26 189.701 42.9815C189.316 43.7029 188.785 44.2621 188.111 44.6588C187.437 45.0554 186.675 45.2532 185.825 45.2532C185.1 45.2532 184.446 45.0962 183.862 44.7829C183.278 44.4698 182.8 44.0108 182.426 43.4074V48.6078H181.219V35.8288H182.374V37.6747C182.737 37.0596 183.216 36.5858 183.811 36.2547C184.406 35.9237 185.077 35.7579 185.825 35.7579ZM185.74 44.1352C186.363 44.1352 186.93 43.9842 187.44 43.6825C187.95 43.3807 188.349 42.9522 188.638 42.3958C188.927 41.8394 189.072 41.2066 189.072 40.4966C189.072 39.7867 188.927 39.1567 188.638 38.6065C188.349 38.0563 187.95 37.6276 187.44 37.3197C186.93 37.0117 186.363 36.8581 185.74 36.8581C185.105 36.8581 184.536 37.0117 184.032 37.3197C183.528 37.6276 183.131 38.0563 182.842 38.6065C182.553 39.1567 182.409 39.7867 182.409 40.4966C182.409 41.2066 182.553 41.8394 182.842 42.3958C183.131 42.9522 183.528 43.3807 184.032 43.6825C184.536 43.9842 185.105 44.1352 185.74 44.1352ZM198.81 35.8288H200L195.529 46.2826C195.166 47.1586 194.747 47.7797 194.271 48.1463C193.796 48.5127 193.224 48.6965 192.555 48.6965C192.124 48.6965 191.722 48.6254 191.348 48.4835C190.974 48.3415 190.651 48.1285 190.379 47.8446L190.94 46.9039C191.393 47.3768 191.937 47.6139 192.572 47.6139C192.98 47.6139 193.328 47.4958 193.617 47.2589C193.906 47.0218 194.175 46.62 194.424 46.0519L194.815 45.1467L190.821 35.8288H192.079L195.444 43.7623L198.81 35.8288Z" fill="#00ADB5"/>
    </g>
    <defs>
        <clipPath id="clip0">
            <rect width="200" height="51.8747" fill="white"/>
        </clipPath>
    </defs>
</svg>
