<svg  viewBox="0 0 45 45" xmlns="http://www.w3.org/2000/svg" class="fill-current">
<path d="M22.5 45C34.927 45 45 34.927 45 22.5C45 10.0744 34.927 0 22.5 0C10.0744 0 0 10.0744 0 22.5C0 34.927 10.0744 45 22.5 45ZM22.5 2.81255C33.3562 2.81255 42.1875 11.6437 42.1875 22.5C42.1875 33.3562 33.3562 42.2311 22.5 42.2311C11.6437 42.2311 2.81255 33.3562 2.81255 22.5C2.81255 11.6437 11.6437 2.81255 22.5 2.81255Z" />
<path d="M25.582 33.3689C26.1319 33.9229 27.022 33.9229 27.5705 33.3689C28.1203 32.8134 28.1203 31.9148 27.5705 31.3594L18.8587 22.5212L27.5719 13.6829C28.1217 13.1289 28.1217 12.2289 27.5719 11.6734C27.022 11.1194 26.1319 11.1194 25.5834 11.6734L15.8803 21.5158C15.3459 22.0572 15.3445 22.9839 15.8803 23.5253L25.582 33.3689Z" />
</svg>
